<svg width="30" height="26" viewBox="0 0 30 26" fill="none" xmlns="http://www.w3.org/2000/svg">
<g filter="url(#filter0_i_7079_4126)">
<path d="M15 25L12.97 23.2736C5.76 17.1657 1 13.1243 1 8.19346C1 4.15204 4.388 1 8.7 1C11.136 1 13.474 2.0594 15 3.72044C16.526 2.0594 18.864 1 21.3 1C25.612 1 29 4.15204 29 8.19346C29 13.1243 24.24 17.1657 17.03 23.2736L15 25Z" fill="#FF2D72"/>
</g>
<g opacity="0.25" filter="url(#filter1_f_7079_4126)">
<!-- <circle cx="12.9966" cy="10.9966" r="5" transform="rotate(-13 12.9966 10.9966)" fill="white"/> -->
</g>
<!-- <path d="M15.8585 15H14.5625V8.88H12.5945V7.956H12.9785C13.8665 7.956 14.3705 7.728 14.7185 6.96H15.8585V15Z" fill="white"/> -->
<defs>
<filter id="filter0_i_7079_4126" x="1" y="1" width="28" height="24" filterUnits="userSpaceOnUse" color-interpolation-filters="sRGB">
<feFlood flood-opacity="0" result="BackgroundImageFix"/>
<feBlend mode="normal" in="SourceGraphic" in2="BackgroundImageFix" result="shape"/>
<feColorMatrix in="SourceAlpha" type="matrix" values="0 0 0 0 0 0 0 0 0 0 0 0 0 0 0 0 0 0 127 0" result="hardAlpha"/>
<feOffset/>
<feGaussianBlur stdDeviation="1.85"/>
<feComposite in2="hardAlpha" operator="arithmetic" k2="-1" k3="1"/>
<feColorMatrix type="matrix" values="0 0 0 0 0.674039 0 0 0 0 0.0855511 0 0 0 0 0.278911 0 0 0 1 0"/>
<feBlend mode="normal" in2="shape" result="effect1_innerShadow_7079_4126"/>
</filter>
<filter id="filter1_f_7079_4126" x="2.99512" y="0.995483" width="20.0029" height="20.0022" filterUnits="userSpaceOnUse" color-interpolation-filters="sRGB">
<feFlood flood-opacity="0" result="BackgroundImageFix"/>
<feBlend mode="normal" in="SourceGraphic" in2="BackgroundImageFix" result="shape"/>
<feGaussianBlur stdDeviation="2.5" result="effect1_foregroundBlur_7079_4126"/>
</filter>
</defs>
</svg>
